# File created by Blade
# Date/Time:  Thu Sep 25 19:04:16 2014
# Frame Rate: 120.000 fps
#------------------------------------------------------
:FULLY-SPECIFIED
:DEGREES
1035
root 3.220053 30.034606 -9.789660 83.754569 14.192969 25.059103
Spine 17.973953 28.384042 23.893071
Head -74.545168 -9.651559 -7.778760
LeftShoulder -14.681257 22.374352 16.456864
LeftArm 0.743341 34.639372 -64.200721
LeftForeArm 1.326962 -0.000000 12.240412
LeftHand -33.532459 -0.000000 -5.413426
LeftHandThumb1 -26.253704 0.000000 33.147579
RightShoulder 1.020072 29.185911 -26.809542
RightArm 21.946542 -8.371952 57.213395
RightForeArm -19.712671 -0.000000 17.981001
RightHand -6.974733 -0.000000 -18.943489
RightHandThumb1 -24.326973 -0.000000 -32.862282
LeftUpLeg -85.793395 -9.599409 -3.068652
LeftLeg -6.960965 -0.000000 0.000000
LeftFoot 7.476652 8.972792 -28.274816
LeftToeBase 9.587718 -0.000000 -0.000000
RightUpLeg -80.274154 -55.561309 4.065987
RightLeg -4.324096 -0.000000 0.000000
RightFoot 4.731689 -17.766815 20.462506
RightToeBase 3.734532 -0.000000 -0.000000
1036
root 3.196884 30.041798 -9.786419 83.073724 14.249816 24.821292
Spine 17.696532 28.217883 23.635785
Head -74.248400 -9.690079 -7.807410
LeftShoulder -14.704632 22.371994 16.454643
LeftArm 1.045684 33.492488 -63.751047
LeftForeArm 1.075327 0.000000 12.129554
LeftHand -33.503327 -0.000000 -4.745334
LeftHandThumb1 -26.253704 0.000000 33.147579
RightShoulder 0.798487 29.036392 -26.834189
RightArm 21.242551 -8.507729 57.757440
RightForeArm -19.702301 -0.000000 18.196184
RightHand -7.605188 -0.000000 -19.615254
RightHandThumb1 -24.326973 -0.000000 -32.862282
LeftUpLeg -85.221589 -9.314301 -3.044218
LeftLeg -6.899380 -0.000000 0.000000
LeftFoot 7.442389 9.012533 -28.314973
LeftToeBase 9.634808 -0.000000 -0.000000
RightUpLeg -79.291507 -55.336731 3.380196
RightLeg -4.278881 -0.000000 0.000000
RightFoot 4.749826 -17.678501 20.417131
RightToeBase 3.689487 -0.000000 -0.000000
1037
root 3.173672 30.049507 -9.781380 82.419880 14.291411 24.606657
Spine 17.409443 28.106725 23.301484
Head -74.102924 -9.697759 -7.718077
LeftShoulder -14.818859 22.309242 16.476550
LeftArm 1.490208 32.535136 -63.211838
LeftForeArm 0.736579 0.000000 11.928961
LeftHand -33.452949 0.000000 -4.814225
LeftHandThumb1 -26.253704 0.000000 33.147579
RightShoulder 0.458880 28.885060 -26.855901
RightArm 20.510902 -8.615839 58.287057
RightForeArm -19.423106 0.000000 18.290820
RightHand -7.328988 -0.000000 -20.010600
RightHandThumb1 -24.326973 -0.000000 -32.862282
LeftUpLeg -84.662407 -9.049614 -3.018061
LeftLeg -6.852122 -0.000000 0.000000
LeftFoot 7.422926 9.042439 -28.333101
LeftToeBase 9.677025 -0.000000 -0.000000
RightUpLeg -78.294904 -55.120577 2.656961
RightLeg -4.250492 -0.000000 0.000000
RightFoot 4.747542 -17.641087 20.396109
RightToeBase 3.686424 -0.000000 -0.000000
1038
root 3.148130 30.057182 -9.777168 81.708061 14.321045 24.359864
Spine 17.168180 27.959338 22.956869
Head -73.920303 -9.683602 -7.599994
LeftShoulder -14.942811 22.322600 16.495292
LeftArm 1.909063 31.417861 -62.705026
LeftForeArm 0.580823 -0.000000 11.886878
LeftHand -33.307737 -0.000000 -4.428403
LeftHandThumb1 -26.253704 0.000000 33.147579
RightShoulder 0.159216 28.813532 -26.893683
RightArm 19.640961 -8.402641 58.943192
RightForeArm -19.882539 0.000000 18.435758
RightHand -6.990757 -0.000000 -19.540975
RightHandThumb1 -24.326973 -0.000000 -32.862282
LeftUpLeg -84.064273 -8.748870 -3.001069
LeftLeg -6.783640 -0.000000 0.000000
LeftFoot 7.389039 9.073793 -28.379009
LeftToeBase 9.644935 -0.000000 -0.000000
RightUpLeg -77.169756 -54.854333 1.803148
RightLeg -4.220657 -0.000000 0.000000
RightFoot 4.729052 -17.626711 20.415740
RightToeBase 3.626684 -0.000000 -0.000000
1039
root 3.125531 30.064918 -9.770528 81.000495 14.362809 24.167271
Spine 16.883472 27.776117 22.618697
Head -73.703972 -9.712939 -7.495649
LeftShoulder -15.026042 22.291123 16.523395
LeftArm 2.286078 30.393832 -62.224061
LeftForeArm 0.381081 -0.000000 11.812804
LeftHand -33.232554 -0.000000 -3.764178
LeftHandThumb1 -26.253704 0.000000 33.147579
RightShoulder -0.097064 28.673627 -26.858062
RightArm 18.802410 -8.415125 59.389893
RightForeArm -19.647925 0.000000 18.589199
RightHand -7.044539 0.000000 -19.477359
RightHandThumb1 -24.326973 -0.000000 -32.862282
LeftUpLeg -83.441042 -8.506419 -2.997053
LeftLeg -6.728125 -0.000000 0.000000
LeftFoot 7.364904 9.102984 -28.376479
LeftToeBase 9.648897 -0.000000 -0.000000
RightUpLeg -76.064191 -54.645470 0.987097
RightLeg -4.187102 -0.000000 0.000000
RightFoot 4.707642 -17.596223 20.390666
RightToeBase 3.669755 -0.000000 -0.000000
1040
root 3.095230 30.073987 -9.762362 80.314694 14.406255 23.893594
Spine 16.576476 27.752370 22.249902
Head -73.533921 -9.746214 -7.319186
LeftShoulder -15.108889 22.213656 16.609404
LeftArm 2.687378 29.351042 -61.740647
LeftForeArm 0.400031 -0.000000 11.774768
LeftHand -33.207875 -0.000000 -4.004577
LeftHandThumb1 -26.253704 0.000000 33.147579
RightShoulder -0.255033 28.783389 -26.893659
RightArm 17.378819 -8.194736 60.046849
RightForeArm -19.664449 -0.000000 18.944316
RightHand -7.155597 -0.000000 -20.361220
RightHandThumb1 -24.326973 -0.000000 -32.862282
LeftUpLeg -82.872372 -8.177447 -2.957201
LeftLeg -6.659746 -0.000000 0.000000
LeftFoot 7.341263 9.138397 -28.445700
LeftToeBase 9.504903 -0.000000 -0.000000
RightUpLeg -75.084541 -54.335611 0.299393
RightLeg -4.130289 -0.000000 0.000000
RightFoot 4.677647 -17.547993 20.363358
RightToeBase 3.638902 -0.000000 -0.000000
1041
root 3.068552 30.081916 -9.751104 79.555242 14.469271 23.656274
Spine 16.340636 27.608924 21.967708
Head -73.326845 -9.764121 -7.247795
LeftShoulder -15.172167 22.287940 16.625087
LeftArm 3.196811 28.230479 -61.243734
LeftForeArm 0.385590 -0.000000 11.709027
LeftHand -33.166895 -0.000000 -3.980622
LeftHandThumb1 -26.253704 0.000000 33.147579
RightShoulder -0.646950 28.269452 -26.809884
RightArm 16.981383 -8.127848 60.281195
RightForeArm -19.239256 0.000000 18.917110
RightHand -6.952932 -0.000000 -20.288660
RightHandThumb1 -24.326973 -0.000000 -32.862282
LeftUpLeg -82.212133 -7.884079 -2.907753
LeftLeg -6.602313 -0.000000 0.000000
LeftFoot 7.301917 9.163383 -28.508558
LeftToeBase 9.465505 -0.000000 -0.000000
RightUpLeg -73.959376 -54.068778 -0.479159
RightLeg -4.079492 -0.000000 0.000000
RightFoot 4.642190 -17.499844 20.364932
RightToeBase 3.558436 -0.000000 -0.000000
1042
root 3.041922 30.088962 -9.740502 78.812608 14.525349 23.439927
Spine 16.047840 27.427615 21.636542
Head -73.115182 -9.817118 -7.133462
LeftShoulder -15.221320 22.331070 16.643596
LeftArm 3.615871 27.178647 -60.781037
LeftForeArm 0.061121 -0.000000 11.661666
LeftHand -33.136388 0.000000 -2.780568
LeftHandThumb1 -26.253704 0.000000 33.147579
RightShoulder -0.974955 27.904227 -26.742445
RightArm 16.362466 -8.033238 60.572981
RightForeArm -19.106198 -0.000000 18.925558
RightHand -6.880007 -0.000000 -20.220694
RightHandThumb1 -24.326973 -0.000000 -32.862282
LeftUpLeg -81.560589 -7.616574 -2.906931
LeftLeg -6.519660 -0.000000 0.000000
LeftFoot 7.309109 9.103223 -28.389706
LeftToeBase 9.396181 -0.000000 -0.000000
RightUpLeg -72.915250 -53.821406 -1.183847
RightLeg -4.021592 -0.000000 0.000000
RightFoot 4.548950 -17.435760 20.452841
RightToeBase 3.667858 -0.000000 -0.000000
1043
root 3.013301 30.097234 -9.727724 78.048809 14.586722 23.185540
Spine 15.777318 27.304873 21.311687
Head -72.917695 -9.743405 -7.032907
LeftShoulder -15.262106 22.355404 16.698991
LeftArm 4.041331 26.130176 -60.364093
LeftForeArm -0.312307 0.000000 11.592843
LeftHand -32.889130 0.000000 -1.621710
LeftHandThumb1 -26.253704 0.000000 33.147579
RightShoulder -1.222755 27.632867 -26.704034
RightArm 15.454609 -7.826691 60.901520
RightForeArm -18.964353 -0.000000 19.014489
RightHand -6.802753 -0.000000 -20.233464
RightHandThumb1 -24.326973 -0.000000 -32.862282
LeftUpLeg -80.883683 -7.306343 -2.925904
LeftLeg -6.473847 -0.000000 0.000000
LeftFoot 7.272774 9.110366 -28.516834
LeftToeBase 9.589789 -0.000000 -0.000000
RightUpLeg -71.767775 -53.519180 -1.975168
RightLeg -3.980371 -0.000000 0.000000
RightFoot 4.547665 -17.366307 20.404640
RightToeBase 3.546797 -0.000000 -0.000000
